<svg width="1600" height="1000" viewBox="0 0 1600 1000" fill="none" xmlns="http://www.w3.org/2000/svg">
  <rect width="1600" height="1000" fill="#03050A"/>
  <rect x="36" y="36" width="1528" height="928" rx="28" fill="#050812" stroke="#123042"/>
  <rect x="72" y="72" width="1456" height="74" rx="18" fill="#07111B" stroke="#123042"/>
  <circle cx="118" cy="109" r="8" fill="#22D3EE"/>
  <rect x="145" y="99" width="190" height="20" rx="10" fill="#0E2230"/>
  <rect x="1110" y="96" width="100" height="24" rx="12" fill="#0E2230"/>
  <rect x="1226" y="96" width="100" height="24" rx="12" fill="#102A20"/>
  <rect x="1342" y="96" width="130" height="24" rx="12" fill="#2A111B"/>
  <rect x="72" y="178" width="950" height="474" rx="24" fill="#061018" stroke="#123042"/>
  <circle cx="547" cy="415" r="170" fill="#071A27" stroke="#22D3EE" stroke-opacity="0.35" stroke-width="2"/>
  <circle cx="547" cy="415" r="132" stroke="#22D3EE" stroke-opacity="0.18" stroke-width="1.5"/>
  <circle cx="547" cy="415" r="94" stroke="#22D3EE" stroke-opacity="0.12" stroke-width="1.5"/>
  <path d="M404 403C451 361 519 355 580 388" stroke="#22D3EE" stroke-opacity="0.45" stroke-width="2"/>
  <path d="M527 531C610 519 663 451 657 365" stroke="#F472B6" stroke-opacity="0.45" stroke-width="2"/>
  <circle cx="438" cy="397" r="6" fill="#22D3EE"/>
  <circle cx="603" cy="375" r="6" fill="#F472B6"/>
  <circle cx="563" cy="514" r="6" fill="#34D399"/>
  <rect x="1054" y="178" width="474" height="222" rx="24" fill="#061018" stroke="#123042"/>
  <rect x="1086" y="214" width="185" height="16" rx="8" fill="#123042"/>
  <rect x="1086" y="254" width="408" height="22" rx="11" fill="#081826"/>
  <rect x="1086" y="290" width="358" height="22" rx="11" fill="#081826"/>
  <rect x="1086" y="326" width="390" height="22" rx="11" fill="#081826"/>
  <rect x="1054" y="430" width="474" height="222" rx="24" fill="#061018" stroke="#123042"/>
  <rect x="1086" y="466" width="190" height="16" rx="8" fill="#123042"/>
  <rect x="1086" y="510" width="408" height="18" rx="9" fill="#081826"/>
  <rect x="1086" y="544" width="408" height="18" rx="9" fill="#081826"/>
  <rect x="1086" y="578" width="408" height="18" rx="9" fill="#081826"/>
  <rect x="72" y="686" width="1456" height="234" rx="24" fill="#061018" stroke="#123042"/>
  <rect x="104" y="722" width="280" height="18" rx="9" fill="#123042"/>
  <rect x="104" y="770" width="1320" height="24" rx="12" fill="#081826"/>
  <rect x="104" y="810" width="1240" height="24" rx="12" fill="#081826"/>
  <rect x="104" y="850" width="1180" height="24" rx="12" fill="#081826"/>
</svg>
