<svg width="1600" height="1000" viewBox="0 0 1600 1000" fill="none" xmlns="http://www.w3.org/2000/svg">
  <rect width="1600" height="1000" fill="#03050A"/>
  <rect x="36" y="36" width="1528" height="928" rx="28" fill="#050812" stroke="#3B1430"/>
  <rect x="72" y="72" width="1456" height="74" rx="18" fill="#10111A" stroke="#3B1430"/>
  <circle cx="118" cy="109" r="8" fill="#F472B6"/>
  <rect x="145" y="99" width="250" height="20" rx="10" fill="#241120"/>
  <rect x="72" y="178" width="430" height="742" rx="24" fill="#0B0D15" stroke="#3B1430"/>
  <rect x="108" y="216" width="190" height="16" rx="8" fill="#3B1430"/>
  <rect x="108" y="266" width="358" height="98" rx="20" fill="#16101B" stroke="#5B2148"/>
  <rect x="108" y="388" width="358" height="98" rx="20" fill="#16101B" stroke="#5B2148"/>
  <rect x="108" y="510" width="358" height="98" rx="20" fill="#16101B" stroke="#5B2148"/>
  <rect x="536" y="178" width="992" height="286" rx="24" fill="#0B0D15" stroke="#3B1430"/>
  <rect x="572" y="214" width="270" height="16" rx="8" fill="#3B1430"/>
  <rect x="572" y="270" width="200" height="140" rx="20" fill="#16101B"/>
  <rect x="792" y="270" width="200" height="140" rx="20" fill="#16101B"/>
  <rect x="1012" y="270" width="200" height="140" rx="20" fill="#16101B"/>
  <rect x="1232" y="270" width="260" height="140" rx="20" fill="#16101B"/>
  <rect x="536" y="496" width="992" height="424" rx="24" fill="#0B0D15" stroke="#3B1430"/>
  <rect x="572" y="532" width="250" height="16" rx="8" fill="#3B1430"/>
  <path d="M604 826C672 700 768 656 842 690C910 722 950 786 1012 792C1094 800 1150 680 1234 654C1302 634 1376 676 1456 742" stroke="#F472B6" stroke-width="6" stroke-linecap="round"/>
  <circle cx="842" cy="690" r="10" fill="#F472B6"/>
  <circle cx="1012" cy="792" r="10" fill="#22D3EE"/>
  <circle cx="1234" cy="654" r="10" fill="#34D399"/>
</svg>
