<svg width="1600" height="1000" viewBox="0 0 1600 1000" fill="none" xmlns="http://www.w3.org/2000/svg">
  <rect width="1600" height="1000" fill="#03050A"/>
  <rect x="36" y="36" width="1528" height="928" rx="28" fill="#050812" stroke="#163524"/>
  <rect x="72" y="72" width="1456" height="74" rx="18" fill="#08130D" stroke="#163524"/>
  <circle cx="118" cy="109" r="8" fill="#34D399"/>
  <rect x="145" y="99" width="220" height="20" rx="10" fill="#102017"/>
  <rect x="72" y="178" width="540" height="742" rx="24" fill="#07110C" stroke="#163524"/>
  <rect x="108" y="216" width="190" height="16" rx="8" fill="#163524"/>
  <rect x="108" y="266" width="468" height="112" rx="20" fill="#0C1712" stroke="#24573C"/>
  <circle cx="180" cy="322" r="44" fill="#123D28"/>
  <path d="M161 322L174 335L201 308" stroke="#34D399" stroke-width="10" stroke-linecap="round" stroke-linejoin="round"/>
  <rect x="108" y="408" width="468" height="152" rx="20" fill="#0C1712" stroke="#24573C"/>
  <rect x="144" y="444" width="396" height="20" rx="10" fill="#163524"/>
  <rect x="144" y="480" width="350" height="18" rx="9" fill="#11261B"/>
  <rect x="144" y="512" width="312" height="18" rx="9" fill="#11261B"/>
  <rect x="648" y="178" width="880" height="320" rx="24" fill="#07110C" stroke="#163524"/>
  <rect x="684" y="214" width="220" height="16" rx="8" fill="#163524"/>
  <rect x="684" y="272" width="808" height="28" rx="14" fill="#0C1712"/>
  <rect x="684" y="318" width="742" height="28" rx="14" fill="#0C1712"/>
  <rect x="684" y="364" width="780" height="28" rx="14" fill="#0C1712"/>
  <rect x="648" y="530" width="880" height="390" rx="24" fill="#07110C" stroke="#163524"/>
  <rect x="684" y="566" width="220" height="16" rx="8" fill="#163524"/>
  <rect x="684" y="624" width="808" height="24" rx="12" fill="#0C1712"/>
  <rect x="684" y="666" width="808" height="24" rx="12" fill="#0C1712"/>
  <rect x="684" y="708" width="808" height="24" rx="12" fill="#0C1712"/>
  <rect x="684" y="750" width="808" height="24" rx="12" fill="#0C1712"/>
</svg>
